<svg width="19" height="17" viewBox="0 0 19 17" fill="none" xmlns="http://www.w3.org/2000/svg">
<path d="M11.9752 17C12.5315 17 12.5737 16.4014 12.9671 16.0049C13.3606 15.6083 13.9591 15.5706 13.9591 15.0097C13.9591 14.4489 13.3606 13.416 12.9671 13.0194C12.5737 12.6228 12.5315 13.0194 11.9752 13.0194C11.4188 13.0194 10.3846 12.6228 9.9912 13.0194C9.59777 13.416 9.9912 14.4489 9.9912 15.0097C9.9912 15.5706 9.59777 15.6083 9.9912 16.0049C10.3846 16.4014 11.4188 17 11.9752 17ZM4.03933 17C4.59571 17 5.62986 16.4014 6.02328 16.0049C6.4167 15.6083 6.02328 15.5706 6.02328 15.0097C6.02328 14.4489 6.4167 13.416 6.02328 13.0194C5.62986 12.6228 4.59571 13.0194 4.03933 13.0194C3.48294 13.0194 3.44077 12.6228 3.04735 13.0194C2.65393 13.416 2.05537 14.4489 2.05537 15.0097C2.05537 15.5706 2.65393 15.6083 3.04735 16.0049C3.44077 16.4014 3.48294 17 4.03933 17ZM17.927 2.07276C18.1889 2.06425 18.7368 2.26249 18.919 2.07276C19.1012 1.88303 18.919 1.3417 18.919 1.07761C18.919 0.81352 19.1012 0.27219 18.919 0.0824629C18.7368 -0.107264 18.1889 0.0909764 17.927 0.0824629H16.935C15.9889 0.0824629 15.1567 1.1423 14.9511 2.07276L12.9671 8.04366C12.7615 8.97412 12.9213 9.03881 11.9752 9.03881H4.03933L2.05537 3.06791H11.9752C12.2345 3.05598 12.7878 3.25716 12.9671 3.06791C13.1465 2.87866 12.9671 2.3345 12.9671 2.07276C12.9671 1.81102 13.1465 1.26686 12.9671 1.07761C12.7878 0.888361 12.2345 1.08954 11.9752 1.07761H2.05537C1.74873 1.07752 1.33899 0.942107 1.06339 1.07761C0.78779 1.21312 0.260115 1.82913 0.0714113 2.07276C-0.117292 2.3164 0.134971 2.76553 0.0714113 3.06791C0.00785127 3.3703 -0.00305501 3.76321 0.0714113 4.06306L2.05537 10.034C2.16441 10.474 1.70071 10.75 2.05537 11.0291C2.41003 11.3083 3.58936 11.0292 4.03933 11.0291H11.9752C12.8932 11.0292 13.243 10.613 13.9591 10.034C14.6752 9.45493 14.752 8.94703 14.9511 8.04366L16.935 2.07276H17.927Z" fill="white"/>
</svg>
